# Blender v2.80 (sub 75) OBJ File: ''
# www.blender.org
mtllib logo_if.mtl
o Plane.010_Plane
v -3.603942 -2.917155 1.026090
v -2.185669 -2.917155 1.026090
v -2.185669 2.982577 1.026101
v -3.603942 2.982577 1.026101
v -3.386846 3.411875 1.026101
v -2.402765 3.411875 1.026101
v -2.721111 3.554975 1.026103
v -3.068500 3.554975 1.026103
v -3.581092 3.125677 1.026101
v -2.208519 3.125677 1.026101
v -2.305665 3.268776 1.026101
v -3.483946 3.268776 1.026101
v -2.389409 -3.402140 1.026090
v -3.400202 -3.402140 1.026090
v -3.134890 -3.563802 1.026090
v -2.654721 -3.563802 1.026090
v -2.191185 -3.078816 1.026090
v -3.598426 -3.078816 1.026090
v -3.528419 -3.240479 1.026090
v -2.261192 -3.240479 1.026090
v -1.138451 0.695104 1.026097
v -0.289016 0.695104 1.026097
v -0.289016 1.805954 1.026099
v -1.138451 1.805954 1.026099
v -1.325987 0.695104 1.026097
v -1.692906 0.695104 1.026097
v -1.692906 -0.517943 1.026095
v -1.325987 -0.517943 1.026095
v -1.692906 -3.012187 1.026090
v -1.325987 -3.012187 1.026090
v -0.289016 -0.517943 1.026095
v 5.701257 -0.517943 1.026095
v 5.701257 0.695104 1.026097
v -1.138451 3.106686 1.026101
v -0.289016 3.106686 1.026101
v -0.289016 3.556998 1.026103
v -0.883748 3.537827 1.026103
v -1.138451 1.963706 1.026099
v -0.261628 1.914409 1.026099
v -0.187682 2.011908 1.026099
v -1.138451 2.121458 1.026099
v 0.059523 2.716415 1.026101
v 0.059523 2.121458 1.026099
v 2.400650 2.121458 1.026099
v 2.400650 2.716415 1.026101
v 2.885737 2.743916 1.026101
v 2.885737 2.282186 1.026101
v 3.047432 2.580609 1.026101
v 3.047432 2.794977 1.026101
v 2.562346 2.718019 1.026101
v 2.562346 2.130827 1.026099
v 2.724041 2.176185 1.026099
v 2.724041 2.725779 1.026101
v 6.148482 0.549583 1.026097
v 6.148482 -0.372423 1.026095
v 6.297559 -0.137292 1.026097
v 6.297559 0.314452 1.026097
v 5.850333 0.686562 1.026097
v 5.850333 -0.509402 1.026095
v 5.999408 -0.468304 1.026095
v 5.999408 0.645465 1.026097
v -1.228524 -3.429243 1.026090
v -1.488702 -3.429243 1.026090
v -1.257202 -3.568261 1.026090
v -1.118033 -3.568261 1.026090
v -1.318357 -3.151205 1.026090
v -1.676918 -3.151205 1.026090
v -1.593475 -3.290224 1.026090
v -1.278530 -3.290224 1.026090
v -0.114746 2.716415 1.026101
v -0.090098 2.091331 1.026099
v -0.289016 2.716415 1.026101
v -1.325987 1.805954 1.026099
v -1.325987 1.963706 1.026099
v -0.388447 -3.290224 1.026090
v -1.117559 -3.290224 1.026090
v -1.095544 -3.429243 1.026090
v -0.493219 -3.429243 1.026090
v -0.289016 -3.012187 1.026090
v -1.138451 -3.012187 1.026090
v -1.135092 -3.151205 1.026090
v -0.305003 -3.151205 1.026090
v -1.046903 -3.568261 1.026090
v -0.724719 -3.568261 1.026090
v -1.325987 2.121458 1.026099
v -1.325987 3.106686 1.026101
v -1.257519 3.283123 1.026101
v -1.138451 -0.517943 1.026095
v -1.138451 2.716415 1.026101
v -1.325987 2.716415 1.026101
v -0.114746 3.106686 1.026101
v 0.059523 3.106686 1.026101
v 2.400650 3.106686 1.026101
v 2.562346 3.103194 1.026101
v 2.724041 3.086293 1.026101
v 2.885737 3.046795 1.026101
v 3.047432 2.935595 1.026101
v 0.059523 3.556998 1.026103
v 2.400650 3.556998 1.026103
v 2.885737 3.396270 1.026101
v 3.047432 3.097846 1.026101
v 2.562346 3.547628 1.026103
v 2.724041 3.502271 1.026103
v -0.114746 3.556998 1.026103
v -1.670996 2.590433 1.026101
v -1.528581 2.904019 1.026101
v -1.692906 2.121458 1.026099
v -1.692906 1.805954 1.026099
v -1.429986 3.080456 1.026101
v -1.692906 1.963706 1.026099
v -3.603942 -2.917155 0.030947
v -3.603942 2.982577 0.030958
v -2.185669 2.982577 0.030958
v -2.185669 -2.917155 0.030947
v -3.386846 3.411875 0.030958
v -3.068500 3.554975 0.030958
v -2.721111 3.554975 0.030958
v -2.402765 3.411875 0.030958
v -3.581092 3.125677 0.030958
v -3.483946 3.268776 0.030958
v -2.305665 3.268776 0.030958
v -2.208519 3.125677 0.030958
v -2.389409 -3.402140 0.030947
v -2.654721 -3.563802 0.030947
v -3.134890 -3.563802 0.030947
v -3.400202 -3.402140 0.030947
v -2.191185 -3.078816 0.030947
v -2.261192 -3.240479 0.030947
v -3.528419 -3.240479 0.030947
v -3.598426 -3.078816 0.030947
v -1.138451 0.695104 0.030954
v -1.138451 1.805954 0.030956
v -0.289016 1.805954 0.030956
v -0.289016 0.695104 0.030954
v -1.325987 0.695104 0.030954
v -1.325987 -0.517943 0.030952
v -1.692906 -0.517943 0.030952
v -1.692906 0.695104 0.030954
v -1.325987 -3.012187 0.030947
v -1.692906 -3.012187 0.030947
v 5.701257 0.695104 0.030954
v 5.701257 -0.517943 0.030952
v -0.289016 -0.517943 0.030952
v -1.138451 3.106686 0.030958
v -0.883748 3.537827 0.030958
v -0.289016 3.556998 0.030958
v -0.289016 3.106686 0.030958
v -1.138451 1.963706 0.030956
v -1.138451 2.121458 0.030956
v -0.187682 2.011908 0.030956
v -0.261628 1.914409 0.030956
v 0.059523 2.716415 0.030956
v 2.400650 2.716415 0.030956
v 2.400650 2.121458 0.030956
v 0.059523 2.121458 0.030956
v 2.885737 2.743916 0.030956
v 3.047432 2.794977 0.030958
v 3.047432 2.580609 0.030956
v 2.885737 2.282186 0.030956
v 2.562346 2.718019 0.030956
v 2.724041 2.725779 0.030956
v 2.724041 2.176185 0.030956
v 2.562346 2.130827 0.030956
v 6.148482 0.549583 0.030954
v 6.297559 0.314452 0.030954
v 6.297559 -0.137292 0.030952
v 6.148482 -0.372423 0.030952
v 5.850333 0.686562 0.030954
v 5.999408 0.645465 0.030954
v 5.999408 -0.468304 0.030952
v 5.850333 -0.509402 0.030952
v -1.228524 -3.429243 0.030947
v -1.118033 -3.568261 0.030947
v -1.257202 -3.568261 0.030947
v -1.488702 -3.429243 0.030947
v -1.318357 -3.151205 0.030947
v -1.278530 -3.290224 0.030947
v -1.593475 -3.290224 0.030947
v -1.676918 -3.151205 0.030947
v -0.114746 2.716415 0.030956
v -0.090098 2.091331 0.030956
v -0.289016 2.716415 0.030956
v -1.325987 1.805954 0.030956
v -1.325987 1.963706 0.030956
v -0.388447 -3.290224 0.030947
v -0.493219 -3.429243 0.030947
v -1.095544 -3.429243 0.030947
v -1.117559 -3.290224 0.030947
v -0.289016 -3.012187 0.030947
v -0.305003 -3.151205 0.030947
v -1.135092 -3.151205 0.030947
v -1.138451 -3.012187 0.030947
v -0.724719 -3.568261 0.030947
v -1.046903 -3.568261 0.030947
v -1.325987 2.121458 0.030956
v -1.325987 3.106686 0.030958
v -1.257519 3.283123 0.030958
v -1.138451 -0.517943 0.030952
v -1.325987 2.716415 0.030956
v -1.138451 2.716415 0.030956
v -0.114746 3.106686 0.030958
v 0.059523 3.106686 0.030958
v 2.400650 3.106686 0.030958
v 2.562346 3.103194 0.030958
v 2.724041 3.086293 0.030958
v 2.885737 3.046795 0.030958
v 3.047432 2.935595 0.030958
v 0.059523 3.556998 0.030958
v 2.400650 3.556998 0.030958
v 2.885737 3.396270 0.030958
v 3.047432 3.097846 0.030958
v 2.562346 3.547628 0.030958
v 2.724041 3.502271 0.030958
v -0.114746 3.556998 0.030958
v -1.670996 2.590433 0.030956
v -1.528581 2.904019 0.030958
v -1.692906 2.121458 0.030956
v -1.692906 1.805954 0.030956
v -1.429986 3.080456 0.030958
v -1.692906 1.963706 0.030956
vn 0.0000 -0.0000 1.0000
vn 0.0000 0.0000 -1.0000
vn -0.8574 -0.5146 0.0000
vn 0.8792 -0.4764 0.0000
vn 0.9177 -0.3974 0.0000
vn 0.7986 -0.6019 0.0000
vn 0.0579 0.9983 0.0000
vn -0.9994 -0.0341 0.0000
vn -1.0000 0.0000 0.0000
vn 0.2701 -0.9628 0.0000
vn 0.8574 -0.5146 0.0000
vn 0.5483 0.8363 0.0000
vn 1.0000 0.0000 0.0000
vn -0.9935 -0.1143 0.0000
vn 0.5483 -0.8363 0.0000
vn 0.0000 -1.0000 0.0000
vn 0.0000 1.0000 0.0000
vn -0.7986 -0.6019 0.0000
vn 0.8792 0.4764 0.0000
vn 0.4100 0.9121 0.0000
vn 0.5148 -0.8573 0.0000
vn -0.9875 0.1577 0.0000
vn 0.2701 0.9628 0.0000
vn 0.8274 0.5617 0.0000
vn 0.8274 0.5616 0.0000
vn 0.0578 -0.9983 0.0000
vn -0.8275 0.5615 0.0000
vn -0.8274 0.5616 0.0000
vn 0.9696 -0.2448 -0.0000
vn -0.8274 0.5617 0.0000
vn 0.1974 -0.9803 0.0000
vn 0.8446 -0.5355 -0.0000
vn 0.9875 0.1577 0.0000
vn 0.0572 0.9984 0.0000
vn -0.9105 0.4135 0.0000
vn 0.2658 -0.9640 -0.0000
vn -0.8729 0.4878 0.0000
vn 0.8275 0.5615 0.0000
vn 0.5410 0.8411 0.0000
vn -0.4100 0.9121 0.0000
vn 0.6312 -0.7756 0.0000
vn -0.7616 0.6481 0.0000
vn 0.2658 0.9640 0.0000
vn 0.0572 -0.9984 -0.0000
vn -0.5203 -0.8540 0.0000
vn 0.7968 -0.6043 0.0000
vn 0.9994 -0.0341 0.0000
vn 0.5409 -0.8411 -0.0000
vn -0.9989 0.0467 0.0000
vn -0.9177 -0.3974 0.0000
vn 0.8446 0.5355 0.0000
vn 0.7835 -0.6214 0.0000
vn -0.0322 0.9995 0.0000
vn -0.7835 -0.6214 0.0000
vn -0.5148 -0.8573 0.0000
vn 0.5203 -0.8540 0.0000
vn 0.9935 -0.1142 0.0000
vn -0.5631 0.8264 0.0000
usemtl Material.005
s 1
f 1//1 2//1 3//1 4//1
f 5//1 6//1 7//1 8//1
f 9//1 10//1 11//1 12//1
f 4//1 3//1 10//1 9//1
f 12//1 11//1 6//1 5//1
f 13//1 14//1 15//1 16//1
f 17//1 18//1 19//1 20//1
f 20//1 19//1 14//1 13//1
f 2//1 1//1 18//1 17//1
f 21//1 22//1 23//1 24//1
f 25//1 26//1 27//1 28//1
f 28//1 27//1 29//1 30//1
f 22//1 31//1 32//1 33//1
f 34//1 35//1 36//1 37//1
f 38//1 39//1 40//1 41//1
f 42//1 43//1 44//1 45//1
f 46//1 47//1 48//1 49//1
f 50//1 51//1 52//1 53//1
f 53//1 52//1 47//1 46//1
f 45//1 44//1 51//1 50//1
f 54//1 55//1 56//1 57//1
f 58//1 59//1 60//1 61//1
f 33//1 32//1 59//1 58//1
f 61//1 60//1 55//1 54//1
f 62//1 63//1 64//1 65//1
f 66//1 67//1 68//1 69//1
f 30//1 29//1 67//1 66//1
f 69//1 68//1 63//1 62//1
f 24//1 23//1 39//1 38//1
f 70//1 71//1 43//1 42//1
f 72//1 40//1 71//1 70//1
f 73//1 24//1 38//1 74//1
f 75//1 76//1 77//1 78//1
f 79//1 80//1 81//1 82//1
f 82//1 81//1 76//1 75//1
f 78//1 77//1 83//1 84//1
f 74//1 38//1 41//1 85//1
f 86//1 34//1 37//1 87//1
f 31//1 88//1 80//1 79//1
f 22//1 21//1 88//1 31//1
f 25//1 21//1 24//1 73//1
f 85//1 41//1 89//1 90//1
f 35//1 72//1 70//1 91//1
f 91//1 70//1 42//1 92//1
f 93//1 45//1 50//1 94//1
f 95//1 53//1 46//1 96//1
f 94//1 50//1 53//1 95//1
f 96//1 46//1 49//1 97//1
f 92//1 42//1 45//1 93//1
f 41//1 40//1 72//1 89//1
f 98//1 92//1 93//1 99//1
f 100//1 96//1 97//1 101//1
f 102//1 94//1 95//1 103//1
f 103//1 95//1 96//1 100//1
f 99//1 93//1 94//1 102//1
f 104//1 91//1 92//1 98//1
f 36//1 35//1 91//1 104//1
f 90//1 89//1 34//1 86//1
f 89//1 72//1 35//1 34//1
f 105//1 90//1 86//1 106//1
f 107//1 85//1 90//1 105//1
f 26//1 25//1 73//1 108//1
f 106//1 86//1 87//1 109//1
f 110//1 74//1 85//1 107//1
f 108//1 73//1 74//1 110//1
f 76//1 69//1 62//1 77//1
f 80//1 30//1 66//1 81//1
f 81//1 66//1 69//1 76//1
f 77//1 62//1 65//1 83//1
f 88//1 28//1 30//1 80//1
f 21//1 25//1 28//1 88//1
f 111//2 112//2 113//2 114//2
f 115//2 116//2 117//2 118//2
f 119//2 120//2 121//2 122//2
f 112//2 119//2 122//2 113//2
f 120//2 115//2 118//2 121//2
f 123//2 124//2 125//2 126//2
f 127//2 128//2 129//2 130//2
f 128//2 123//2 126//2 129//2
f 114//2 127//2 130//2 111//2
f 131//2 132//2 133//2 134//2
f 135//2 136//2 137//2 138//2
f 136//2 139//2 140//2 137//2
f 134//2 141//2 142//2 143//2
f 144//2 145//2 146//2 147//2
f 148//2 149//2 150//2 151//2
f 152//2 153//2 154//2 155//2
f 156//2 157//2 158//2 159//2
f 160//2 161//2 162//2 163//2
f 161//2 156//2 159//2 162//2
f 153//2 160//2 163//2 154//2
f 164//2 165//2 166//2 167//2
f 168//2 169//2 170//2 171//2
f 141//2 168//2 171//2 142//2
f 169//2 164//2 167//2 170//2
f 172//2 173//2 174//2 175//2
f 176//2 177//2 178//2 179//2
f 139//2 176//2 179//2 140//2
f 177//2 172//2 175//2 178//2
f 132//2 148//2 151//2 133//2
f 180//2 152//2 155//2 181//2
f 182//2 180//2 181//2 150//2
f 183//2 184//2 148//2 132//2
f 185//2 186//2 187//2 188//2
f 189//2 190//2 191//2 192//2
f 190//2 185//2 188//2 191//2
f 186//2 193//2 194//2 187//2
f 184//2 195//2 149//2 148//2
f 196//2 197//2 145//2 144//2
f 143//2 189//2 192//2 198//2
f 134//2 143//2 198//2 131//2
f 135//2 183//2 132//2 131//2
f 195//2 199//2 200//2 149//2
f 147//2 201//2 180//2 182//2
f 201//2 202//2 152//2 180//2
f 203//2 204//2 160//2 153//2
f 205//2 206//2 156//2 161//2
f 204//2 205//2 161//2 160//2
f 206//2 207//2 157//2 156//2
f 202//2 203//2 153//2 152//2
f 149//2 200//2 182//2 150//2
f 208//2 209//2 203//2 202//2
f 210//2 211//2 207//2 206//2
f 212//2 213//2 205//2 204//2
f 213//2 210//2 206//2 205//2
f 209//2 212//2 204//2 203//2
f 214//2 208//2 202//2 201//2
f 146//2 214//2 201//2 147//2
f 199//2 196//2 144//2 200//2
f 200//2 144//2 147//2 182//2
f 215//2 216//2 196//2 199//2
f 217//2 215//2 199//2 195//2
f 138//2 218//2 183//2 135//2
f 216//2 219//2 197//2 196//2
f 220//2 217//2 195//2 184//2
f 218//2 220//2 184//2 183//2
f 188//2 187//2 172//2 177//2
f 192//2 191//2 176//2 139//2
f 191//2 188//2 177//2 176//2
f 187//2 194//2 173//2 172//2
f 198//2 192//2 139//2 136//2
f 131//2 198//2 136//2 135//2
f 67//3 179//3 178//3 68//3
f 47//4 159//4 158//4 48//4
f 20//5 128//5 127//5 17//5
f 78//6 186//6 185//6 75//6
f 102//7 212//7 209//7 99//7
f 1//8 111//8 130//8 18//8
f 4//9 112//9 111//9 1//9
f 51//10 163//10 162//10 52//10
f 75//11 185//11 190//11 82//11
f 100//12 210//12 213//12 103//12
f 108//9 218//9 138//9 26//9
f 2//13 114//13 113//13 3//13
f 29//14 140//14 179//14 67//14
f 52//15 162//15 159//15 47//15
f 64//16 174//16 173//16 65//16
f 22//13 134//13 133//13 23//13
f 7//17 117//17 116//17 8//17
f 68//18 178//18 175//18 63//18
f 101//19 211//19 210//19 100//19
f 6//20 118//20 117//20 7//20
f 84//21 193//21 186//21 78//21
f 49//13 157//13 207//13 97//13
f 9//22 119//22 112//22 4//22
f 103//23 213//23 212//23 102//23
f 26//9 138//9 137//9 27//9
f 10//24 122//24 121//25 11//25
f 107//9 217//9 220//9 110//9
f 44//26 154//26 163//26 51//26
f 5//27 115//27 120//28 12//28
f 23//29 133//29 151//29 39//29
f 56//13 166//13 165//13 57//13
f 27//9 137//9 140//9 29//9
f 12//28 120//28 119//30 9//30
f 71//31 181//31 155//31 43//31
f 55//32 167//32 166//32 56//32
f 79//13 189//13 143//13 31//13
f 3//33 113//33 122//33 10//33
f 99//17 209//17 208//17 98//17
f 58//34 168//34 141//34 33//34
f 106//35 216//35 215//35 105//35
f 59//36 171//36 170//36 60//36
f 31//16 143//16 142//16 32//16
f 109//37 219//37 216//37 106//37
f 11//25 121//25 118//38 6//38
f 98//17 208//17 214//17 104//17
f 54//39 164//39 169//39 61//39
f 33//17 141//17 134//17 22//17
f 8//40 116//40 115//40 5//40
f 48//13 158//13 157//13 49//13
f 40//41 150//41 181//41 71//41
f 87//42 197//42 219//42 109//42
f 61//43 169//43 168//43 58//43
f 15//16 125//16 124//16 16//16
f 32//44 142//44 171//44 59//44
f 110//9 220//9 218//9 108//9
f 14//45 126//45 125//45 15//45
f 39//46 151//46 150//46 40//46
f 17//47 127//47 114//47 2//47
f 60//48 170//48 167//48 55//48
f 105//49 215//49 217//49 107//49
f 18//50 130//50 129//50 19//50
f 57//51 165//51 164//51 54//51
f 13//52 123//52 128//52 20//52
f 36//53 146//53 145//53 37//53
f 83//16 194//16 193//16 84//16
f 43//16 155//16 154//16 44//16
f 19//54 129//54 126//54 14//54
f 65//16 173//16 194//16 83//16
f 63//55 175//55 174//55 64//55
f 104//17 214//17 146//17 36//17
f 16//56 124//56 123//56 13//56
f 82//57 190//57 189//57 79//57
f 97//13 207//13 211//13 101//13
f 37//58 145//58 197//58 87//58
